PathFileType	4	(X/Y/Z)	C:/Users/beibeiliu/ov580/test_trc/User3\sequence.19_training_dense_left.trc
DataRate	CameraRate	NumFrames	NumMarkers	Units	OrigDataRate	OrigDataStartFrame	OrigNumFrames
120	120	21	19	mm	120	69	275
Frame#	Time	ThumbCMC			ThumbMCP			ThumbIP			ThumbTip			IndexMCP			IndexPIP			IndexTip			MiddleMCP			MiddlePIP			MiddleTip			RingMCP			RingPIP			RingTip			PinkyMCP			PinkyPIP			PinkyTip			BackHand1			BackHand2			BackHand3	
		X0	Y0	Z0	X1	Y1	Z1	X2	Y2	Z2	X3	Y3	Z3	X4	Y4	Z4	X5	Y5	Z5	X6	Y6	Z6	X7	Y7	Z7	X8	Y8	Z8	X9	Y9	Z9	X10	Y10	Z10	X11	Y11	Z11	X12	Y12	Z12	X13	Y13	Z13	X14	Y14	Z14	X15	Y15	Z15	X16	Y16	Z16	X17	Y17	Z17	X18	Y18	Z18	
68	0.566667	-231.707	-16.327	-13.7518	-230.915	-15.4184	-41.0609	-231.266	-17.4666	-67.1289	-230.117	-16.1382	-91.9848	-224.531	-81.9272	-62.8408	-218.659	-102.843	-82.0636	-210.17	-119.901	-94.5396	-196.628	-91.4978	-54.4839	-166.47	-81.0598	-52.895	-176.188	-53.9049	-26.0933	-191.381	-94.4888	-36.0434	-164.464	-78.9188	-28.0196	-180.418	-59.6947	-7.38754	-186.03	-104.395	-16.1113	-165.55	-84.0372	-15.3787	-181.358	-63.8546	-0.999343	-235.93	-83.1262	-3.61729	-243.639	-68.7351	24.0314	-244.084	-50.7419	-9.63831	
69	0.575	-226.948	-20.3501	-11.6766	-225.529	-20.7378	-42.6033	-225.743	-19.7493	-70.5556	-222.342	-17.4408	-91.3818	-218.582	-82.7793	-65.2795	-209.174	-104.74	-80.8173	-199.523	-122.282	-93.2324	-188.09	-93.7531	-52.3114	-160.44	-83.0352	-47.5874	-175.11	-55.4327	-20.1974	-184.998	-98.5883	-30.7804	-160.353	-84.068	-22.5807	-179.238	-60.3195	-6.77365	-182.873	-105.906	-14.6928	-163.397	-85.7649	-11.1798	-178.149	-67.3649	5.96469	-235.688	-84.2773	-0.126314	-242.699	-67.4441	26.3066	-241.68	-51.2315	-10.0694	
70	0.583333	-224.278	-19.2946	-14.1631	-218.71	-23.2587	-39.6117	-216.73	-21.0797	-70.4314	-213.521	-20.0809	-91.9897	-210.199	-84.2447	-64.1829	-201.569	-100.259	-79.1304	-186.022	-124.713	-91.3067	-183.607	-90.8529	-50.4058	-154.04	-81.8477	-41.7478	-170.045	-53.8939	-18.5246	-180.274	-99.8207	-27.6595	-156.849	-78.9377	-16.9426	-182.06	-60.7652	-2.1717	-177.228	-106.223	-11.0307	-159.097	-88.674	-1.78375	-181.964	-67.0098	8.16654	-230.998	-87.4825	-2.55268	-241.117	-65.3412	20.4389	-238.036	-51.4033	-11.4147	
71	0.591667	-219.534	-22.4376	-16.0316	-212.915	-19.4106	-38.3078	-206.839	-23.186	-67.3743	-202.378	-18.0717	-89.8248	-198.216	-87.0633	-57.9222	-185.586	-104.428	-75.594	-170.277	-123.49	-87.3979	-175.023	-91.9988	-45.5372	-146.219	-77.6843	-36.0736	-168.576	-53.1047	-10.3248	-170.601	-96.6003	-24.7996	-150.996	-81.8558	-11.6419	-178.933	-60.4265	2.46233	-176.514	-105.449	-4.84367	-156.701	-85.0337	2.65739	-180.675	-65.7618	12.752	-225.264	-88.1325	-4.4561	-239.362	-69.4535	18.8999	-233.139	-51.1904	-15.9871	
72	0.6	-215.475	-18.4916	-11.5211	-205.886	-20.006	-36.6009	-199.594	-18.6658	-66.1655	-192.305	-19.108	-85.8452	-188.003	-85.4445	-56.2383	-174.348	-102.307	-69.7704	-157.755	-117.38	-82.3759	-163.125	-92.0516	-38.5784	-138.873	-76.8424	-22.8947	-162.008	-54.6833	-3.39801	-163.949	-96.1099	-17.6601	-146.142	-75.7511	-2.29082	-174.865	-57.006	5.31591	-170.841	-101.512	-2.80644	-152.522	-83.5376	10.1378	-178.47	-66.3227	20.7271	-222.456	-87.8862	-1.95024	-238.52	-67.3018	18.9779	-228.303	-52.2426	-12.6575	
73	0.608333	-211.549	-18.8321	-8.39982	-199.491	-22.6027	-34.7688	-189.899	-19.6099	-64.6333	-183.641	-11.7521	-80.9665	-177.32	-78.9509	-53.8	-160.071	-95.6124	-69.267	-140.486	-114.426	-76.0747	-156.008	-85.7512	-35.1013	-131.139	-74.4316	-18.9038	-159.151	-51.2222	3.0151	-158.539	-91.5806	-14.3743	-142.474	-69.9253	4.57786	-172.602	-55.7607	10.7294	-160.222	-98.4223	2.21035	-149.042	-79.3056	18.8967	-177.159	-64.3771	19.2959	-213.847	-84.8521	-5.70346	-231.694	-73.1366	17.5882	-221.142	-52.7802	-13.7187	
74	0.616667	-206.471	-20.1	-6.83288	-194.686	-16.2255	-33.4816	-182.171	-15.5795	-61.7274	-177.269	-5.87325	-77.278	-165.082	-75.9273	-48.9911	-146.841	-91.5872	-60.7937	-126.383	-105.176	-71.7136	-143.805	-81.795	-29.2516	-123.774	-67.402	-10.1735	-150.298	-43.8914	6.61838	-151.146	-86.2921	-9.58907	-137.117	-65.6868	14.5848	-164.046	-52.6357	17.3683	-154.276	-96.0621	9.54781	-143.81	-75.8807	21.7566	-171.546	-61.6119	24.0771	-207.353	-84.4693	0.631236	-229.184	-68.2421	14.7623	-215.354	-49.8357	-13.4309	
75	0.625	-203.294	-15.6545	-7.81617	-188.336	-14.3653	-29.9698	-179.067	-8.61248	-55.9015	-171.086	-0.35467	-72.4886	-157.037	-72.2167	-43.9225	-134.237	-86.2263	-55.8096	-114.332	-95.7856	-66.943	-137.21	-75.0254	-24.4381	-117.095	-60.2446	-2.83588	-150.022	-40.348	13.432	-141.852	-81.9189	-1.13445	-130.65	-59.44	17.1553	-165.424	-48.281	21.2215	-150.304	-89.1889	12.347	-139.327	-70.3845	30.1932	-167.873	-56.1049	28.9117	-197.511	-80.9525	-4.44568	-224.675	-66.5408	15.8788	-212.363	-49.177	-10.5031	
76	0.633333	-199.694	-12.6767	-7.35031	-186.528	-7.5688	-26.9807	-172.064	-5.05496	-51.632	-167.854	7.83832	-68.9342	-149.95	-59.3623	-44.2327	-127.05	-72.515	-55.8521	-106.288	-85.4009	-60.5857	-128.305	-66.5257	-19.9555	-111.635	-51.2355	3.27918	-142.717	-32.2059	17.8368	-135.946	-72.6543	-1.22942	-127.506	-53.7865	25.244	-157.536	-43.5636	27.6833	-141.027	-83.6618	16.7594	-134.379	-63.5006	33.7538	-166.92	-50.9576	34.2855	-193.931	-76.2999	0.188156	-217.122	-70.8385	15.7315	-204.512	-48.274	-12.2013	
77	0.641667	-198.691	-11.1754	-0.28591	-182.017	-5.8887	-22.4944	-170.189	4.44085	-47.708	-164.507	14.0122	-62.3801	-144.134	-54.332	-38.7897	-120.459	-64.2532	-51.3346	-97.2513	-75.8958	-58.0405	-124.646	-57.446	-17.9252	-107.099	-41.3925	3.67508	-139.311	-28.4391	22.7768	-129.442	-65.6223	4.37684	-124.486	-46.5843	28.9013	-156.388	-36.5676	30.1018	-134.764	-74.9486	17.7345	-131.095	-53.9013	36.1384	-157.934	-45.5323	36.1162	-188.131	-75.8911	-0.436948	-213.323	-66.8377	17.8545	-200.78	-45.3514	-9.94957	
78	0.65	-199.166	-3.98021	-0.105861	-180.142	-0.847742	-21.4909	-168.107	9.05326	-43.1857	-160.335	18.3587	-59.8328	-137.396	-46.3428	-36.7155	-116.698	-52.4669	-47.9451	-93.6054	-61.9774	-53.9221	-123.185	-52.9136	-12.4384	-105.525	-30.9935	11.1843	-137.9	-18.5629	25.3578	-127.934	-59.5642	5.53009	-119.895	-40.5199	32.1866	-149.456	-29.74	35.6144	-135.025	-69.8112	20.662	-128.956	-45.9114	39.1059	-156.693	-38.3095	40.327	-184.545	-67.0605	2.6067	-208.318	-62.925	17.5642	-198.07	-37.1318	-7.93936	
79	0.658333	-196.522	-2.24275	2.23292	-180.486	5.54562	-17.8492	-169.363	17.8813	-42.1954	-162.123	27.6959	-56.8311	-136.058	-39.4944	-32.544	-109.076	-47.6235	-43.8155	-89.7444	-52.2659	-51.7693	-118.873	-45.0086	-9.72238	-102.652	-25.3403	9.88131	-135.368	-15.604	29.0562	-120.911	-51.1139	8.1198	-117.759	-34.8284	33.1685	-147.584	-23.0326	36.4727	-130.292	-63.6855	22.9261	-124.761	-43.4622	41.9001	-153.158	-33.181	42.5737	-181.355	-64.8846	4.95035	-206.6	-60.2988	15.3083	-196.616	-35.2014	-8.01855	
80	0.666667	-195.807	0.0399847	4.63272	-182.803	12.1731	-14.3194	-168.092	20.1043	-38.4855	-161.631	32.8154	-51.9533	-131.944	-34.7422	-34.2956	-107.458	-40.9701	-43.0863	-84.315	-43.777	-51.964	-117.352	-38.6084	-9.03655	-102.277	-19.6928	14.5823	-135.637	-8.90857	28.5167	-122.736	-45.9879	6.99182	-114.32	-27.8313	29.51	-148.23	-17.6759	34.058	-125.567	-59.3555	26.5209	-123.676	-37.407	38.7467	-152.423	-28.2694	44.0987	-175.611	-64.2663	1.64059	-205	-54.9882	16.5266	-196.167	-30.7761	-6.28502	
81	0.675	-198.549	6.93998	3.7384	-182.168	15.5777	-15.1933	-171.384	26.776	-38.702	-165.051	39.3382	-51.116	-134.423	-26.6952	-34.618	-111.517	-33.9332	-43.8222	-85.383	-39.8153	-51.945	-116.982	-29.9207	-12.8941	-101.784	-10.9932	9.87704	-136.128	-7.38765	29.6467	-121.752	-42.6663	6.84702	-112.995	-25.7205	30.2635	-148.291	-13.823	33.5586	-124.772	-51.1899	21.038	-121.708	-31.8673	37.654	-152.691	-25.5224	44.5596	-176.309	-59.6307	2.9451	-201.911	-56.4127	18.7586	-194.536	-27.6651	-5.60822	
82	0.683333	-199.728	7.71297	3.61195	-185.449	16.8782	-12.0657	-172.838	29.8957	-39.2101	-167.41	40.7236	-54.4193	-136.643	-22.0156	-38.8813	-114.263	-26.1408	-49.3152	-90.3478	-33.6918	-56.0569	-120.83	-28.0934	-15.8259	-103.451	-7.52285	9.18446	-137.494	-4.06297	26.9887	-120.658	-38.1092	3.71796	-113.419	-22.0885	28.1843	-145.495	-9.8346	32.5662	-128.125	-51.5458	18.3685	-119.869	-30.3893	36.9693	-148.385	-22.825	42.6861	-175.114	-53.829	-1.92433	-203.514	-51.9691	15.6107	-198.043	-26.8062	-5.62518	
83	0.691667	-202.833	8.90961	7.06195	-189.536	21.6587	-15.0294	-177.971	31.3812	-38.6113	-174.354	45.4792	-55.5362	-140.663	-16.8292	-40.4643	-117.124	-22.1723	-52.5429	-95.3635	-26.6987	-63.2576	-118.435	-25.2221	-17.8287	-104.045	-7.57089	5.43127	-135.044	-1.34505	24.8291	-123.224	-34.993	-0.373785	-113.221	-18.0299	23.9546	-146.836	-10.1004	33.462	-127.094	-49.3349	16.7728	-119.624	-29.6529	35.0761	-148.887	-17.8639	38.0144	-175.732	-53.4394	-0.537888	-202.937	-52.5959	18.0368	-198.369	-23.618	-7.40407	
84	0.7	-204.365	10.2389	2.98887	-192.887	22.2064	-17.4551	-187.804	36.1825	-41.8164	-183.286	47.7046	-54.9563	-145.893	-13.7415	-43.6732	-119.576	-18.6663	-57.6751	-102.632	-19.5889	-70.4053	-122.698	-18.0961	-23.8616	-104.81	-4.24886	-2.25852	-137.355	4.57838	21.2847	-123.385	-32.4118	-3.947	-116.133	-11.4317	19.9233	-147.777	-5.83554	28.7953	-126.408	-43.3488	9.2347	-119.803	-26.0057	29.9247	-147.049	-14.1869	35.3526	-178.09	-53.2493	-3.8736	-205.697	-49.4848	17.8595	-201.527	-21.1154	-8.38455	
85	0.708333	-209.258	11.5869	5.59367	-196.973	20.1804	-17.0929	-192.778	33.3685	-40.5124	-194.298	47.3973	-57.4059	-150.186	-12.6873	-47.5545	-131.626	-13.7618	-60.3903	-110.899	-16.7761	-76.7047	-130.472	-17.051	-30.6458	-110.435	2.31055	-8.93938	-137.534	7.39436	15.5323	-126.2	-31.0611	-9.36042	-117.15	-8.45869	11.1234	-149.288	-6.31831	26.0545	-125.456	-43.1381	5.53111	-120.514	-22.9733	21.3581	-151.102	-14.4071	33.8313	-182.066	-51.1719	-2.82285	-205.077	-48.574	14.46	-207.319	-19.8178	-5.79022	
86	0.716667	-212.499	9.77667	7.82719	-204.427	20.6944	-17.2712	-205.874	34.9025	-39.7966	-207.627	47.2301	-60.0389	-160.824	-12.2515	-50.9049	-143.13	-10.7259	-71.9098	-123.626	-14.7451	-89.0063	-138.575	-20.0615	-35.8269	-116.326	0.585652	-22.0745	-143.492	5.66846	10.8923	-133.683	-27.8848	-18.2144	-121.693	-8.87609	4.98518	-147.783	-4.80286	20.0488	-133.46	-40.8497	-4.43556	-125.216	-18.559	10.792	-149.267	-15.1453	27.5721	-186.876	-49.9079	-2.75806	-208.06	-48.5289	13.9703	-212.32	-20.059	-7.05827	
87	0.725	-215.608	11.4903	7.92706	-211.296	22.0346	-17.5984	-211.255	31.4991	-41.7426	-219.046	47.4985	-55.5835	-172.432	-13.8288	-59.1976	-158.138	-14.1652	-77.9046	-142.596	-16.7164	-99.1365	-147.928	-18.038	-47.3778	-124.651	1.21964	-33.7472	-145.49	5.94875	-1.67228	-140.876	-32.5786	-26.9054	-125.749	-11.0926	-9.733	-153.166	-5.90715	10.6652	-140.745	-43.2609	-13.3775	-127.665	-22.5228	2.93896	-151.124	-17.9999	18.9035	-193.647	-51.706	-6.77953	-212.71	-49.557	19.5773	-217.252	-21.1119	-5.43382	
88	0.733333	-215.398	11.8798	6.20493	-212.527	21.012	-16.4254	-219.893	36.5427	-43.2217	-222.483	48.7719	-58.5091	-186.26	-14.9407	-61.5119	-173.586	-15.7217	-88.8724	-163.035	-21.6468	-106.169	-156.655	-24.7649	-55.2513	-132.257	-7.49227	-41.9777	-149.998	0.948415	-11.0009	-152.508	-38.3195	-35.1732	-132.785	-18.9685	-22.1447	-154.987	-12.3579	2.36426	-150.133	-48.5141	-24.0747	-134.132	-30.344	-11.726	-153.01	-24.1558	10.8634	-203.937	-49.8947	-9.61542	-216.64	-50.0212	16.9991	-220.058	-18.4519	-8.41741	
